<svg xmlns="http://www.w3.org/2000/svg" width="115" height="50" viewBox="0 0 99 50">
  <g id="Script_Logo" data-name="Script Logo" transform="translate(-2786 253)">
    <text id="KeyChamp" transform="translate(2780 -208)" fill="#fff" font-size="20" font-family="Urbanist, sans-serif" font-weight="500"><tspan x="0" y="0">Key</tspan><tspan y="0" fill="#fc0" font-weight="800">Champ</tspan></text>
    <path id="Path_1" data-name="Path 1" d="M2.524,4.9l4.3,2.9L11.1,1.725a1.027,1.027,0,0,1,.364-.32,1.01,1.01,0,0,1,.937,0,1.027,1.027,0,0,1,.364.32L17.049,7.8l4.3-2.9a1.011,1.011,0,0,1,1.1-.02,1.032,1.032,0,0,1,.385.432,1.051,1.051,0,0,1,.1.574L21.247,20.374a1.042,1.042,0,0,1-.336.654,1.014,1.014,0,0,1-.679.262H3.638a1.014,1.014,0,0,1-.68-.262,1.042,1.042,0,0,1-.336-.654L.942,5.884a1.05,1.05,0,0,1,.1-.574,1.032,1.032,0,0,1,.385-.431,1.011,1.011,0,0,1,1.1.02Zm9.411,10.166a2.032,2.032,0,0,0,1.447-.608,2.1,2.1,0,0,0,0-2.934,2.026,2.026,0,0,0-2.893,0,2.1,2.1,0,0,0,0,2.934A2.032,2.032,0,0,0,11.934,15.066Z" transform="translate(2822.814 -254.291)" fill="#fc0"/>
  </g>
</svg>
